<svg width="634" height="615" viewBox="0 0 634 615" fill="none" xmlns="http://www.w3.org/2000/svg">
<g filter="url(#filter0_d_1_213)">
<path d="M515.902 500.758H495.253L497.962 508.038C493.524 509.483 483.428 512.796 478.895 514.099C474.674 515.313 473.517 520.215 476.881 522.495C478.288 523.449 480.173 523.92 482 523.913L512.812 523.803C517.095 523.787 519.922 522.654 520.495 519.026C520.627 518.195 520.555 517.341 520.328 516.531L515.902 500.758Z" fill="#072C4E"/>
<path d="M399.583 500.9H377.687L380.092 508.02C375.654 509.466 365.268 512.907 360.736 514.21C356.515 515.423 355.358 520.324 358.722 522.605C360.129 523.559 362.014 523.92 363.841 523.914H397.129C397.177 523.914 397.225 523.913 397.273 523.912C402.294 523.851 405.735 518.804 404.089 514.056L399.583 500.9Z" fill="#072C4E"/>
<path d="M469.626 298.256C469.626 298.256 484.342 340.202 497.598 383.272C503.537 402.567 524.026 475.682 530.289 493.641C531.413 496.863 529.023 500.598 525.613 500.598H485.05C480.756 500.598 476.188 497.24 474.894 493.141C446.359 402.7 429.858 316.474 429.858 316.474C429.858 316.374 396.715 373.019 389.942 384.595C389.17 385.915 388.934 387.474 389.283 388.963C392.28 401.772 407.04 464.434 415.928 494.473C416.801 497.425 414.668 500.509 411.591 500.533C411.57 500.533 411.548 500.534 411.527 500.533H373.157C370.117 500.533 366.922 498.144 366.048 495.229C355.668 460.65 348.28 426.805 342.01 395.643C339.272 382.043 341.911 374.924 352.794 358.982C365.202 340.805 395.26 292.297 398.63 288.924" stroke="#082C4E" stroke-width="1.17148" stroke-linecap="round" stroke-linejoin="round"/>
<path d="M176.396 501.105H155.748L155.373 506.963C150.935 508.408 139.253 512.196 134.72 513.499C130.5 514.712 129.343 519.614 132.707 521.895C134.113 522.848 136.133 523.209 137.96 523.203H167.4C172.231 523.185 175.208 521.745 175.191 516.909L176.396 501.105Z" fill="#072C4E"/>
<path d="M282.394 500.544H304.29L310.094 506.962C314.532 508.408 326.214 512.196 330.746 513.499C334.967 514.712 336.123 519.614 332.759 521.895C331.353 522.848 329.467 523.208 327.64 523.202H294.352C289.522 523.184 286.959 521.146 286.031 517.274L282.394 500.544Z" fill="#072C4E"/>
<path d="M265.283 329.913C287.524 371.493 320.611 450.685 329.837 492.851C330.61 496.386 327.953 500.492 324.339 500.546H273.8C270.938 500.589 267.833 497.043 267.409 494.209C260.333 446.987 212.371 332.218 205.406 308.827C205.406 308.827 197.584 455.037 197.063 490.633C196.988 495.788 193.549 501.166 188.398 501.166H146.309C140.595 501.166 136.196 496.12 136.973 490.453C146.825 418.616 153.66 339.249 162.944 295.67" stroke="#082C4E" stroke-width="1.17148" stroke-linecap="round" stroke-linejoin="round"/>
<path d="M236.973 292.634C240.568 299.044 245.82 306.076 249.106 310.177" stroke="#082C4E" stroke-width="1.17148" stroke-linecap="round" stroke-linejoin="round"/>
<path d="M124.747 522.182C243.175 524.713 342.572 523.627 342.572 523.627" stroke="#082C4E" stroke-width="1.17148" stroke-linecap="round" stroke-linejoin="round"/>
<path d="M362.456 522.829C379.179 523.186 392.949 523.326 406.97 523.503C492.241 524.581 528.773 523.616 528.773 523.616" stroke="#082C4E" stroke-width="1.17148" stroke-linecap="round" stroke-linejoin="round"/>
<path d="M297.199 164.768C297.199 164.768 319.799 197.202 350.359 213.159C380.246 228.759 418.686 229.09 420.364 229.096" stroke="#092C4E" stroke-width="28.7013" stroke-linejoin="round"/>
<path d="M297.199 164.768C297.199 164.768 319.799 197.202 350.359 213.159C380.246 228.759 418.686 229.09 420.364 229.096" stroke="#FFCC00" stroke-width="26.3583"/>
<path d="M306.421 153.292L281.991 172.46L285.658 175.129L309.919 159.202L306.421 153.292Z" fill="#FFCC00"/>
<path d="M293.94 165.571C290.267 164.774 286.376 157.291 285.29 154C284.453 151.467 285.037 149.531 287.279 148.526C290.508 147.078 294.797 150.858 295.448 151.662" stroke="#082C4E" stroke-width="1.17148" stroke-linecap="round" stroke-linejoin="round"/>
<path d="M293.447 155.797C294.225 156.671 296.105 159.86 296.588 160.925" stroke="#082C4E" stroke-width="1.17148" stroke-linecap="round" stroke-linejoin="round"/>
<path d="M284.345 152.549C280.351 151.718 279.667 155.277 279.924 157.187C280.579 162.062 284.915 168.279 287.509 170.557C288.302 171.252 289.517 171.446 290.505 171.081C291.493 170.717 292.202 169.566 291.859 168.57" stroke="#082C4E" stroke-width="1.17148" stroke-linecap="round" stroke-linejoin="round"/>
<path d="M279.563 156.379C276.356 156.295 275.566 159.725 276.092 162.408C276.996 167.022 280.681 170.767 282.851 172.308C283.903 173.054 286.799 173.767 287.738 171.16" stroke="#082C4E" stroke-width="1.17148" stroke-linecap="round" stroke-linejoin="round"/>
<path d="M311.196 156.914C311.196 156.914 308.344 154.628 301.524 144.856C297.952 139.739 295.988 136.738 294.116 134.932C291.789 132.688 289.69 131.914 288.525 133.191C287.212 134.631 288.646 139.303 290.305 142.638C293.234 148.524 300.585 159.652 302.606 162.219" stroke="#082C4E" stroke-width="1.17148" stroke-linecap="round" stroke-linejoin="round"/>
<path d="M311.161 166.043C308.081 163.577 297.722 160.891 295.308 160.967C292.283 161.062 292.405 164.301 294.644 166.193C297.444 168.561 302.339 169.92 302.749 169.939C303.855 169.992 297.643 171.611 297.013 175.742" stroke="#082C4E" stroke-width="1.17148" stroke-linecap="round" stroke-linejoin="round"/>
<path d="M513.074 353.674C513.074 353.674 538.405 317.124 523.185 280.419C508.296 244.49 466.094 236.198 464.295 235.854" stroke="#092C4E" stroke-width="28.7013" stroke-linejoin="round"/>
<path d="M513.074 353.674C513.074 353.674 538.405 317.124 523.185 280.419C508.296 244.49 466.094 236.198 464.295 235.854" stroke="#FFCC00" stroke-width="26.3583"/>
<path d="M462.15 299.592L404.962 290.65C401.778 290.152 399.601 287.165 400.098 283.978L409.37 224.558C410.836 215.165 419.63 208.74 429.013 210.207L463.752 215.639C473.136 217.106 479.554 225.911 478.089 235.304L468.815 294.723C468.318 297.91 465.335 300.09 462.15 299.592Z" fill="#2F97F3"/>
<path d="M487.459 458.607L397.864 418.528L450.602 300.483L540.197 340.561L487.459 458.607Z" fill="white"/>
<path d="M423.742 402.185C438.635 382.931 453.562 363.703 468.521 344.5C469.526 343.21 470.638 341.846 472.212 341.403C473.828 340.947 475.53 341.577 477.09 342.196C482.504 344.344 487.917 346.492 493.331 348.64" stroke="#082C4E" stroke-width="1.17148" stroke-linecap="round" stroke-linejoin="round"/>
<path d="M425.055 404.899C428.189 405.812 438.224 410.202 438.224 410.202C438.224 410.202 457.504 386.391 458.096 386.278C458.417 386.218 471.05 391.363 470.899 391.864C467.859 401.964 465.79 412.377 463.648 419.339C463.523 419.748 479.884 427.033 480.164 426.912C480.668 426.695 481.091 425.024 481.21 424.488C483.278 415.161 492.379 370.855 492.676 363.778" stroke="#082C4E" stroke-width="1.17148" stroke-linecap="round" stroke-linejoin="round"/>
<path d="M465.029 374.674C465.029 374.674 472.391 378.051 474.386 378.827C474.82 378.996 478.516 356.126 478.516 356.126L465.029 374.674Z" stroke="#082C4E" stroke-width="1.17148" stroke-linecap="round" stroke-linejoin="round"/>
<path d="M499.677 344.485C496.497 349.479 487.265 358.684 490.016 360.852C493.294 363.435 499.868 355.716 502.759 351.815" stroke="#082C4E" stroke-width="1.17148" stroke-linecap="round" stroke-linejoin="round"/>
<path d="M497.361 369.449C497.284 372.1 500.701 371.535 502.593 370.451C507.579 367.594 510.996 362.052 513.434 358.072" stroke="#082C4E" stroke-width="1.17148" stroke-linecap="round" stroke-linejoin="round"/>
<path d="M503.821 349.687C501.976 353.102 501.545 355.009 497.022 360.881C494.586 364.042 491.022 368.271 493.245 369.54C497.731 372.1 505.251 361.389 508.662 355.243" stroke="#082C4E" stroke-width="1.17148" stroke-linecap="round" stroke-linejoin="round"/>
<path d="M503.028 372.173C503.446 372.867 504.787 373.841 506.954 372.965C510.542 371.516 514.237 368.823 516.165 365.466" stroke="#082C4E" stroke-width="1.17148" stroke-linecap="round" stroke-linejoin="round"/>
<path d="M499.631 344.343C499.631 344.343 507.592 334.423 509.666 321.611" stroke="#092C4E" stroke-width="1.17148"/>
<path d="M537.737 337.847C537.737 337.847 535.001 348.704 530.252 356.275" stroke="#092C4E" stroke-width="1.17148"/>
<path d="M399.953 243.691C399.953 243.691 403.938 244.643 417.106 243.227" stroke="#092C4E" stroke-width="1.17148"/>
<path d="M407.505 212.54C407.505 212.54 411.804 213.087 423.667 212.594" stroke="#092C4E" stroke-width="1.17148"/>
<path d="M477.338 256.925C477.338 256.925 473.147 254.242 463.633 253.062" stroke="#092C4E" stroke-width="1.17148"/>
<path d="M482.216 224.599C482.216 224.599 473.725 220.958 465.533 220.667" stroke="#092C4E" stroke-width="1.17148"/>
<path d="M444.748 193.427C444.748 193.427 439.297 197.104 433.163 194.083" stroke="#082C4E" stroke-width="1.17148" stroke-linecap="round" stroke-linejoin="round"/>
<path d="M437.205 184.656L434.047 189.739L436.767 191.193" stroke="#082C4E" stroke-width="1.17148" stroke-linecap="round" stroke-linejoin="round"/>
<path d="M436.936 183.883C436.786 186.116 434.856 187.805 432.625 187.655C430.394 187.505 428.707 185.574 428.857 183.34C429.006 181.107 430.936 179.418 433.167 179.568C435.398 179.718 437.085 181.649 436.936 183.883Z" stroke="#082C4E" stroke-width="1.17148" stroke-linecap="round" stroke-linejoin="round"/>
<path d="M447.024 185.018C446.874 187.251 444.944 188.94 442.713 188.79C440.483 188.64 438.795 186.709 438.946 184.476C439.095 182.243 441.025 180.554 443.255 180.703C445.486 180.853 447.173 182.784 447.024 185.018Z" stroke="#082C4E" stroke-width="1.17148" stroke-linecap="round" stroke-linejoin="round"/>
<path d="M437.225 184.36L438.946 184.476L437.225 184.36Z" fill="#2F97F3"/>
<path d="M437.225 184.36L438.946 184.476" stroke="#082C4E" stroke-width="1.17148" stroke-linecap="round" stroke-linejoin="round"/>
<path d="M451.474 170.272C449.352 167.477 446.088 165.575 442.314 165.322C435.388 164.857 429.397 170.1 428.933 177.033L445.271 178.129C446.799 181.254 449.846 182.348 452.426 182.857C455.085 183.381 456.286 184.748 456.589 186.402C456.666 186.821 456.719 187.267 456.77 187.729C457.359 187.513 458.001 187.41 458.668 187.455C461.214 187.626 463.139 189.83 462.968 192.378C462.864 193.933 462.002 195.254 460.768 196.011C462.256 197.072 464.052 197.736 466.008 197.868C466.023 197.868 466.038 197.868 466.054 197.87C467.25 195.599 468.002 193.049 468.184 190.324C468.863 180.197 461.446 171.402 451.474 170.272Z" fill="#FD6470"/>
<path d="M465.278 198.94C461.748 204.084 455.829 207.458 449.124 207.458C438.309 207.458 429.541 198.681 429.541 187.854C429.541 187.34 429.56 186.831 429.599 186.325" stroke="#082C4E" stroke-width="1.17148" stroke-linecap="round" stroke-linejoin="round"/>
<path d="M202.664 178.147L207.808 181.647L205.677 184.418" stroke="#082C4E" stroke-width="1.17148" stroke-linecap="round" stroke-linejoin="round"/>
<path d="M208.069 186.676C208.069 186.676 203.452 190.349 198.386 188.845C198.386 188.845 199.199 195.456 205.597 194.229" stroke="#082C4E" stroke-width="1.17148" stroke-linecap="round" stroke-linejoin="round"/>
<path d="M206.192 174.415C208.848 177.767 210.43 182.01 210.422 186.621C210.402 197.448 201.618 206.209 190.803 206.189C184.994 206.178 179.782 203.638 176.203 199.611" stroke="#082C4E" stroke-width="1.17148" stroke-linecap="round" stroke-linejoin="round"/>
<path d="M205.789 172.989C201.598 168.133 195.307 165.566 188.942 166.072C188.93 166.072 187.338 166.229 186.272 166.482C184.735 166.848 183.41 167.285 182.423 167.719C180.224 168.688 178.284 169.995 176.634 171.547C176.287 171.184 175.914 170.839 175.498 170.529C171.489 167.544 165.821 168.378 162.84 172.391C159.858 176.404 160.69 182.077 164.699 185.062C166.395 186.325 168.387 186.897 170.347 186.841C170.407 188.345 170.639 189.861 171.055 191.363C172.119 195.752 174.944 198.977 174.944 198.977C180.366 196.823 182.846 194.789 183.97 192.823C183.812 192.828 183.653 192.825 183.492 192.814C180.947 192.638 179.026 190.431 179.201 187.883C179.376 185.335 181.582 183.411 184.127 183.587C184.556 183.617 184.964 183.708 185.351 183.845C185.782 182.792 186.57 181.735 187.998 180.666C192.319 177.435 193.594 174.288 193.443 171.748C197.255 173.414 201.567 173.911 205.789 172.989Z" fill="#2F97F3"/>
<path d="M61.4339 477.973C61.4339 487.864 67.6296 496.302 76.3462 499.623C71.1871 502.346 67.6687 507.765 67.6687 514.009V522.379H106.426V514.009C106.426 507.765 102.907 502.346 97.748 499.623C106.465 496.302 112.66 487.864 112.66 477.973V454.353H61.4339V477.973Z" fill="#2F97F3"/>
<path d="M70.6668 419.985C76.386 431.609 80.5495 443.998 83.0124 456.719" stroke="#082C4E" stroke-width="1.17148" stroke-linecap="round" stroke-linejoin="round"/>
<path d="M87.6766 455.581C90.0917 439.332 101.27 418.19 104.864 414.873" stroke="#082C4E" stroke-width="1.17148" stroke-linecap="round" stroke-linejoin="round"/>
<path d="M78.5725 454.028C75.7806 450.557 73.1418 446.962 70.6668 443.259C69.0383 440.821 65.0406 433.821 68.2349 433C70.1147 432.517 72.8479 436.238 74.6213 438.42C69.5593 431.025 64.6955 422.893 64.498 413.93C64.4246 410.595 65.4525 406.948 68.3353 405.275C71.9495 403.177 75.4322 406.776 77.1173 409.699C82.2574 418.619 81.1048 425.105 82.2669 435.333C82.5243 434.511 82.678 432.021 83.9405 432.014C88.0238 431.991 86.4425 450.043 85.486 453.894" stroke="#082C4E" stroke-width="1.17148" stroke-linecap="round" stroke-linejoin="round"/>
<path d="M87.8458 433.203C89.2283 426.455 92.8249 410.911 97.3867 411.125C99.3596 411.218 99.4095 414.44 99.2383 415.322C100.923 409.672 105.377 404.92 110.905 402.88C112.216 402.396 113.762 402.08 114.949 402.816C116.022 403.482 116.481 404.857 116.391 406.116C116.3 407.375 115.754 408.55 115.199 409.684C112.989 414.192 108.988 420.078 106.213 424.263C109.808 421.788 111.368 421.234 113.262 421.544C114.783 421.794 115.785 423.412 115.832 424.955C115.88 426.498 115.198 427.963 114.465 429.322C111.53 434.763 107.494 439.604 102.672 443.469C104.055 443.673 105.805 442.451 106.663 443.556C106.88 443.836 106.952 444.205 106.955 444.56C106.966 446.137 105.789 447.447 104.62 448.502C101.671 451.165 98.2812 453.335 94.6306 454.899" stroke="#082C4E" stroke-width="1.17148" stroke-linecap="round" stroke-linejoin="round"/>
<path d="M490.103 138.5H533.358V197.738H490.103V138.5Z" fill="#FD6470"/>
<path d="M495.963 144.736H527.469V191.112H495.963V144.736Z" stroke="#082C4E" stroke-width="1.17148" stroke-linecap="round" stroke-linejoin="round"/>
<path d="M516.605 162.992C516.605 167.402 513.033 170.976 508.628 170.976C504.223 170.976 500.652 167.402 500.652 162.992C500.652 158.583 504.223 155.008 508.628 155.008C513.033 155.008 516.605 158.583 516.605 162.992Z" stroke="#082C4E" stroke-width="1.17148" stroke-linecap="round" stroke-linejoin="round"/>
<path d="M512.111 180.647C512.111 177.293 514.827 174.575 518.177 174.575C521.528 174.575 524.244 177.293 524.244 180.647" stroke="#082C4E" stroke-width="1.17148" stroke-linecap="round" stroke-linejoin="round"/>
<path d="M270.337 323.447C302.712 307.804 328.714 289.685 320.081 257.508C306.847 208.18 225.516 216.615 225.516 216.615" stroke="#082C4E" stroke-width="1.17148" stroke-linecap="round" stroke-linejoin="round"/>
<path d="M232.369 247.09C232.369 247.09 277.864 241.073 289.325 258.785C297.264 271.055 292.74 283.597 274.945 293.871C267.243 298.319 254.834 302.045 247.083 306.607" stroke="#082C4E" stroke-width="1.17148" stroke-linecap="round" stroke-linejoin="round"/>
<path d="M261.884 322.351C260.178 325.366 258.201 330.062 257.924 333.906C257.887 334.435 257.961 335.274 258.32 335.663C258.946 336.343 260.083 335.909 260.813 335.343" stroke="#082C4E" stroke-width="1.17148" stroke-linecap="round" stroke-linejoin="round"/>
<path d="M251.921 307.711C249.723 309.871 247.512 312.044 245.701 314.54C243.89 317.034 242.481 319.891 242.085 322.949C242.004 323.572 242.021 324.322 242.541 324.674C242.816 324.86 243.174 324.881 243.502 324.827C244.702 324.627 245.548 323.58 246.294 322.619C248.446 319.848 250.731 317.181 253.14 314.631C250.753 318.359 248.335 322.148 247.068 326.39C246.904 326.938 246.758 327.509 246.831 328.077C246.904 328.645 247.241 329.213 247.781 329.4C248.284 329.575 248.838 329.393 249.318 329.162C251.497 328.116 253.05 326.11 254.33 324.057C255.608 322.005 257.109 319.371 258.036 318.106C255.794 321.34 252.728 326.427 251.942 331.15C251.69 332.66 251.993 333.934 252.812 334.412C253.824 335.001 255.01 333.763 255.355 333.356C257.944 330.319 259.967 325.443 261.799 322.491" stroke="#082C4E" stroke-width="1.17148" stroke-linecap="round" stroke-linejoin="round"/>
<path d="M157.095 123.441C157.095 123.441 91.3697 142.002 98.7503 190.812C105.989 238.664 171.761 237.915 174.323 237.868" stroke="#092C4E" stroke-width="28.7013" stroke-linejoin="round"/>
<path d="M157.095 123.441C157.095 123.441 91.3697 142.002 98.7503 190.812C105.989 238.664 171.761 237.915 174.323 237.868" stroke="#FFCC00" stroke-width="26.3583"/>
<path d="M253.46 97.6791L251.943 92.8501C251.539 91.5641 250.435 90.6247 249.102 90.4332L205.343 84.1395C203.928 83.9365 202.485 84.1585 201.197 84.7786L175.546 98.7195C173.96 94.71 169.474 92.6541 165.39 94.125L158.612 96.5671C154.446 98.0671 152.285 102.662 153.783 106.83L166.267 141.56C167.765 145.728 172.356 147.891 176.522 146.391L183.3 143.949C186.664 142.737 188.718 139.507 188.596 136.113L216.346 133.29C217.828 133.117 219.216 132.473 220.306 131.452L252.512 101.289C253.496 100.368 253.864 98.9644 253.46 97.6791Z" fill="white"/>
<path d="M252.79 95.5595L218.765 106.271" stroke="#082C4E" stroke-width="1.17148" stroke-linecap="round" stroke-linejoin="round"/>
<path d="M207.731 109.745C206.773 106.695 208.467 103.444 211.514 102.485C214.562 101.526 217.809 103.221 218.767 106.27C219.726 109.32 218.032 112.571 214.985 113.531C211.937 114.49 208.69 112.794 207.731 109.745Z" stroke="#082C4E" stroke-width="1.17148" stroke-linecap="round" stroke-linejoin="round"/>
<path d="M151.307 110.629L158.919 137.753L162.822 137.628L154.331 108.617L151.307 110.629Z" fill="#FFCC00"/>
<path d="M150.277 122.093C154.265 120.035 160.269 118.24 164.8 115.621C169.173 113.093 167.707 110.76 163.686 111.342C160.68 111.778 153.336 113.552 147.892 116.021" stroke="#082C4E" stroke-width="1.17148" stroke-linecap="round" stroke-linejoin="round"/>
<path d="M152.494 128.175C153.814 127.325 171.901 121.692 169.924 118.531C167.952 115.379 152.865 121.544 150.365 122.174" stroke="#082C4E" stroke-width="1.17148" stroke-linecap="round" stroke-linejoin="round"/>
<path d="M154.973 133.342C167.312 128.161 172.679 126.372 171.529 124.178C170.397 122.019 159.473 126.023 152.662 128.167" stroke="#082C4E" stroke-width="1.17148" stroke-linecap="round" stroke-linejoin="round"/>
<path d="M238.725 281.487C237.97 272.197 229.978 265.238 220.745 265.696C227.074 262.663 231.15 255.907 230.436 248.51L228.231 225.665C227.318 216.202 218.915 209.271 209.461 210.186L177.131 213.313C167.678 214.227 160.755 222.639 161.669 232.101L163.873 254.946C164.539 261.851 169.196 267.403 175.337 269.547C167.078 271.376 161.226 279.068 161.931 287.744C162.701 297.22 170.999 304.275 180.465 303.504L222.981 300.041C232.447 299.269 239.496 290.962 238.725 281.487Z" fill="#FD6470"/>
</g>
<defs>
<filter id="filter0_d_1_213" x="-0.4375" y="0" width="634.438" height="615" filterUnits="userSpaceOnUse" color-interpolation-filters="sRGB">
<feFlood flood-opacity="0" result="BackgroundImageFix"/>
<feColorMatrix in="SourceAlpha" type="matrix" values="0 0 0 0 0 0 0 0 0 0 0 0 0 0 0 0 0 0 127 0" result="hardAlpha"/>
<feOffset dy="4"/>
<feGaussianBlur stdDeviation="2"/>
<feComposite in2="hardAlpha" operator="out"/>
<feColorMatrix type="matrix" values="0 0 0 0 0 0 0 0 0 0 0 0 0 0 0 0 0 0 0.25 0"/>
<feBlend mode="normal" in2="BackgroundImageFix" result="effect1_dropShadow_1_213"/>
<feBlend mode="normal" in="SourceGraphic" in2="effect1_dropShadow_1_213" result="shape"/>
</filter>
</defs>
</svg>
